<svg aria-hidden="true" style="position: absolute; width: 0; height: 0; overflow: hidden;" version="1.1" xmlns="http://www.w3.org/2000/svg" xmlns:xlink="http://www.w3.org/1999/xlink">
<defs>
<symbol id="icon-right" viewBox="0 0 32 32">
<path d="M14.467 20.467c-0.119 0.117-0.282 0.189-0.462 0.189-0.364 0-0.66-0.296-0.66-0.66 0-0.18 0.072-0.343 0.189-0.462l-0 0 3.52-3.533-3.52-3.533c-0.117-0.119-0.189-0.282-0.189-0.462 0-0.364 0.296-0.66 0.66-0.66 0.18 0 0.343 0.072 0.462 0.189l4 4c0.12 0.119 0.195 0.284 0.195 0.467s-0.075 0.348-0.195 0.467l-0 0z"></path>
<path d="M24.583 27.916h-17.165c-1.841 0-3.333-1.492-3.333-3.333v0-17.165c0-1.841 1.492-3.333 3.333-3.333v0h17.165c1.841 0 3.333 1.492 3.333 3.333v0 17.165c0 1.841-1.492 3.333-3.333 3.333v0zM7.417 5.417c-1.105 0-2 0.895-2 2v0 17.165c0 1.105 0.895 2 2 2v0h17.165c1.105 0 2-0.895 2-2v0-17.165c0-1.105-0.895-2-2-2v0z"></path>
</symbol>
<symbol id="icon-left" viewBox="0 0 32 32">
<path d="M14.947 16l3.52 3.533c0.117 0.119 0.189 0.282 0.189 0.462 0 0.364-0.296 0.66-0.66 0.66-0.18 0-0.343-0.072-0.462-0.189l0 0c-0.173-0.16-0.333-0.32-0.507-0.493-1.16-1.16-2.333-2.333-3.493-3.507-0.12-0.119-0.195-0.284-0.195-0.467s0.075-0.348 0.195-0.467l4-4c0.119-0.117 0.282-0.189 0.462-0.189 0.364 0 0.66 0.296 0.66 0.66 0 0.18-0.072 0.343-0.189 0.462l0-0z"></path>
<path d="M24.583 27.919h-17.167c-1.841 0-3.333-1.492-3.333-3.333v0-17.164c0-1.841 1.492-3.333 3.333-3.333v0h17.167c1.841 0 3.333 1.492 3.333 3.333v0 17.164c0 1.841-1.492 3.333-3.333 3.333v0zM7.416 5.421c-1.105 0-2 0.895-2 2v0 17.164c0 1.105 0.895 2 2 2v0h17.167c1.105 0 2-0.895 2-2v0-17.164c0-1.105-0.895-2-2-2v0z"></path>
</symbol>
<symbol id="icon-up" viewBox="0 0 32 32">
<path d="M24.583 27.916h-17.165c-0.053 0.003-0.115 0.005-0.178 0.005-1.673 0-3.042-1.299-3.155-2.943l-0.001-0.010v-14.667c0.113-1.655 1.482-2.954 3.156-2.954 0.062 0 0.125 0.002 0.186 0.005l-0.008-0h0.616c0.368 0 0.667 0.298 0.667 0.667s-0.298 0.667-0.667 0.667v0h-0.616c-0.051-0.005-0.111-0.008-0.172-0.008-0.94 0-1.716 0.705-1.828 1.615l-0.001 0.009v14.667c0.112 0.918 0.887 1.623 1.827 1.623 0.061 0 0.121-0.003 0.18-0.009l-0.008 0.001h17.165c0.052 0.005 0.112 0.008 0.173 0.008 0.94 0 1.715-0.704 1.826-1.614l0.001-0.009v-14.667c-0.112-0.919-0.888-1.624-1.828-1.624-0.060 0-0.12 0.003-0.179 0.009l0.008-0.001h-0.616c-0.368 0-0.667-0.298-0.667-0.667s0.298-0.667 0.667-0.667v0h0.616c0.053-0.003 0.115-0.005 0.178-0.005 1.673 0 3.043 1.3 3.155 2.945l0.001 0.010v14.667c-0.113 1.654-1.483 2.953-3.156 2.953-0.063 0-0.125-0.002-0.186-0.005l0.009 0z"></path>
<path d="M11.527 8.284l4-4c0.119-0.121 0.284-0.197 0.466-0.2h0.001c0.188 0 0.357 0.077 0.48 0.2l4 4c0.121 0.121 0.196 0.289 0.196 0.473 0 0.37-0.3 0.669-0.669 0.669-0.185 0-0.352-0.075-0.473-0.196l-2.853-2.853v11.293c-0.006 0.366-0.301 0.661-0.666 0.667h-0.001c-0.368 0-0.667-0.298-0.667-0.667v0-11.32l-2.867 2.88c-0.121 0.121-0.289 0.196-0.473 0.196-0.37 0-0.669-0.3-0.669-0.669 0-0.185 0.075-0.352 0.196-0.473v0z"></path>
</symbol>
<symbol id="icon-down" viewBox="0 0 32 32">
<path d="M24.583 27.931h-17.165c-0.053 0.003-0.115 0.005-0.178 0.005-1.672 0-3.042-1.298-3.155-2.942l-0.001-0.010v-14.667c0.113-1.654 1.483-2.953 3.156-2.953 0.063 0 0.125 0.002 0.186 0.005l-0.008-0h0.616c0.368 0 0.667 0.298 0.667 0.667s-0.298 0.667-0.667 0.667v0h-0.616c-0.052-0.005-0.112-0.008-0.173-0.008-0.94 0-1.715 0.704-1.826 1.614l-0.001 0.009v14.667c0.113 0.918 0.888 1.622 1.827 1.622 0.061 0 0.121-0.003 0.181-0.009l-0.008 0.001h17.165c0.052 0.005 0.112 0.008 0.173 0.008 0.939 0 1.714-0.704 1.826-1.613l0.001-0.009v-14.667c-0.112-0.918-0.887-1.623-1.827-1.623-0.061 0-0.121 0.003-0.18 0.009l0.008-0.001h-0.616c-0.368 0-0.667-0.298-0.667-0.667s0.298-0.667 0.667-0.667v0h0.616c0.053-0.003 0.115-0.005 0.178-0.005 1.673 0 3.042 1.299 3.155 2.943l0.001 0.010v14.667c-0.114 1.654-1.483 2.952-3.156 2.952-0.063 0-0.125-0.002-0.186-0.005l0.009 0z"></path>
<path d="M20.473 14.123l-4 4c-0.119 0.121-0.284 0.197-0.466 0.2h-0c-0.188-0-0.357-0.077-0.48-0.2l-4-4c-0.121-0.121-0.196-0.288-0.196-0.473 0-0.37 0.3-0.669 0.669-0.669 0.185 0 0.352 0.075 0.473 0.196l2.853 2.852v-11.292c0.006-0.366 0.301-0.661 0.666-0.667h0.001c0.368 0 0.667 0.298 0.667 0.667v0 11.32l2.867-2.88c0.121-0.121 0.288-0.196 0.473-0.196 0.37 0 0.669 0.3 0.669 0.669 0 0.185-0.075 0.352-0.196 0.473v0z"></path>
</symbol>
<symbol id="icon-linkedin" viewBox="0 0 32 32">
<path d="M24.587 4.080h-17.173c-1.839 0.005-3.328 1.495-3.333 3.333v17.174c0.005 1.839 1.495 3.328 3.333 3.333h17.174c1.841 0 3.333-1.492 3.333-3.333v0-17.173c0-1.841-1.492-3.333-3.333-3.333v0zM26.587 24.587c-0.008 1.101-0.899 1.992-1.999 2h-17.174c-1.101-0.008-1.992-0.899-2-1.999v-17.174c0.008-1.101 0.899-1.992 1.999-2h17.174c1.101 0.008 1.992 0.899 2 1.999v0.001z"></path>
<path d="M8.501 14.331c0-0.736 0.597-1.333 1.333-1.333s1.333 0.597 1.333 1.333v0 8.667c0 0.736-0.597 1.333-1.333 1.333s-1.333-0.597-1.333-1.333v0z"></path>
<path d="M11.168 8.992c0 0.736-0.597 1.333-1.333 1.333s-1.333-0.597-1.333-1.333c0-0.736 0.597-1.333 1.333-1.333s1.333 0.597 1.333 1.333z"></path>
<path d="M23.493 17.827v5.173c0 0.736-0.597 1.333-1.333 1.333s-1.333-0.597-1.333-1.333v0-5.173c0-1.189-0.964-2.153-2.153-2.153s-2.153 0.964-2.153 2.153v5.173c0 0.736-0.597 1.333-1.333 1.333s-1.333-0.597-1.333-1.333v0-8.667c0.012-0.732 0.602-1.322 1.332-1.333h0.001c0.010-0 0.022-0 0.034-0 0.462 0 0.865 0.25 1.082 0.621l0.003 0.006c0.683-0.394 1.502-0.627 2.375-0.627 2.658 0 4.812 2.154 4.812 4.812 0 0.005 0 0.010-0 0.016v-0.001z"></path>
</symbol>
<symbol id="icon-plus" viewBox="0 0 32 32">
<path d="M23.467 29.251c-0.522-0.001-0.996-0.203-1.349-0.534l0.001 0.001-5.668-5.2c-0.118-0.109-0.277-0.177-0.452-0.177s-0.334 0.067-0.452 0.177l0-0-5.667 5.2c-0.355 0.328-0.832 0.53-1.356 0.53-1.103 0-1.998-0.893-2-1.996v-21.167c0-1.841 1.492-3.333 3.333-3.333v0h12.285c1.841 0 3.333 1.492 3.333 3.333v0 21.163c0 0.005 0 0.010 0 0.015 0 0.811-0.488 1.508-1.187 1.813l-0.013 0.005c-0.238 0.107-0.516 0.17-0.809 0.171h-0zM16 22c0.001 0 0.003 0 0.005 0 0.522 0 0.998 0.2 1.354 0.528l-0.001-0.001 5.668 5.207c0.118 0.109 0.277 0.175 0.451 0.175 0.368 0 0.666-0.298 0.667-0.666v-21.159c0-1.105-0.895-2-2-2v0h-12.285c-1.105 0-2 0.895-2 2v0 21.163c0 0 0 0 0 0.001 0 0.368 0.298 0.667 0.667 0.667 0.175 0 0.334-0.067 0.452-0.177l-0 0 5.668-5.204c0.355-0.33 0.832-0.532 1.356-0.533h0z"></path>
<path d="M18.667 13.707h-2v2c0 0.368-0.298 0.667-0.667 0.667s-0.667-0.298-0.667-0.667v0-2h-2c-0.368 0-0.667-0.298-0.667-0.667s0.298-0.667 0.667-0.667v0h2v-2c0-0.368 0.298-0.667 0.667-0.667s0.667 0.298 0.667 0.667v0 2h2c0.368 0 0.667 0.298 0.667 0.667s-0.298 0.667-0.667 0.667v0z"></path>
</symbol>
<symbol id="icon-minus" viewBox="0 0 32 32">
<path d="M23.467 29.251c-0.522-0.001-0.996-0.203-1.349-0.534l0.001 0.001-5.668-5.2c-0.118-0.109-0.277-0.177-0.452-0.177s-0.334 0.067-0.452 0.177l0-0-5.667 5.2c-0.355 0.328-0.832 0.53-1.356 0.53-1.103 0-1.998-0.893-2-1.996v-21.167c0-1.841 1.492-3.333 3.333-3.333v0h12.285c1.841 0 3.333 1.492 3.333 3.333v0 21.163c0 0.005 0 0.010 0 0.015 0 0.811-0.488 1.508-1.187 1.813l-0.013 0.005c-0.238 0.107-0.516 0.17-0.809 0.171h-0zM16 22c0.001 0 0.003 0 0.005 0 0.522 0 0.998 0.2 1.354 0.528l-0.001-0.001 5.668 5.207c0.118 0.109 0.277 0.175 0.451 0.175 0.368 0 0.666-0.298 0.667-0.666v-21.159c0-1.105-0.895-2-2-2v0h-12.285c-1.105 0-2 0.895-2 2v0 21.163c0 0 0 0 0 0.001 0 0.368 0.298 0.667 0.667 0.667 0.175 0 0.334-0.067 0.452-0.177l-0 0 5.668-5.204c0.355-0.33 0.832-0.532 1.356-0.533h0z"></path>
<path d="M13.333 13.703c-0.368 0-0.667-0.298-0.667-0.667s0.298-0.667 0.667-0.667v0h5.333c0.368 0 0.667 0.298 0.667 0.667s-0.298 0.667-0.667 0.667v0z"></path>
</symbol>
<symbol id="icon-github" viewBox="0 0 32 32">
<path d="M16 0.395c-8.836 0-16 7.163-16 16 0 7.069 4.585 13.067 10.942 15.182 0.8 0.148 1.094-0.347 1.094-0.77 0-0.381-0.015-1.642-0.022-2.979-4.452 0.968-5.391-1.888-5.391-1.888-0.728-1.849-1.776-2.341-1.776-2.341-1.452-0.993 0.11-0.973 0.11-0.973 1.606 0.113 2.452 1.649 2.452 1.649 1.427 2.446 3.743 1.739 4.656 1.33 0.143-1.034 0.558-1.74 1.016-2.14-3.554-0.404-7.29-1.777-7.29-7.907 0-1.747 0.625-3.174 1.649-4.295-0.166-0.403-0.714-2.030 0.155-4.234 0 0 1.344-0.43 4.401 1.64 1.276-0.355 2.645-0.532 4.005-0.539 1.359 0.006 2.729 0.184 4.008 0.539 3.054-2.070 4.395-1.64 4.395-1.64 0.871 2.204 0.323 3.831 0.157 4.234 1.026 1.12 1.647 2.548 1.647 4.295 0 6.145-3.743 7.498-7.306 7.895 0.574 0.497 1.085 1.47 1.085 2.963 0 2.141-0.019 3.864-0.019 4.391 0 0.426 0.288 0.925 1.099 0.768 6.354-2.118 10.933-8.113 10.933-15.18 0-8.837-7.164-16-16-16z"></path>
</symbol>
</defs>
</svg>
